<svg width="153" height="154" viewBox="0 0 153 154" fill="none" xmlns="http://www.w3.org/2000/svg">
<path d="M76.1104 0.748047C117.726 0.748238 151.472 34.7559 151.472 76.7188C151.472 118.682 117.726 152.689 76.1104 152.689C34.4948 152.689 0.748047 118.682 0.748047 76.7188C0.748116 34.7558 34.4949 0.748047 76.1104 0.748047Z" fill="#F9FDFF" stroke="#A3D4F5" stroke-width="1.49661"/>
<path d="M38.8414 95.7014C39.3975 95.3112 39.9867 96.2422 39.3901 96.5578C38.8354 96.9217 38.2733 96.0171 38.8414 95.7014Z" fill="#1D1C1B"/>
<path d="M40.8507 95.7394C41.192 95.3906 41.8404 95.7933 41.6884 96.2483C41.6228 96.618 41.1101 96.7751 40.8463 96.5117C40.6182 96.3201 40.6182 95.922 40.8507 95.7394Z" fill="#1D1C1B"/>
<path d="M82.3479 95.6834C82.7605 95.4027 83.326 95.9596 83.0484 96.3792C82.8867 96.7227 82.339 96.7316 82.1639 96.3987C82.008 96.1627 82.0986 95.8118 82.3479 95.6834Z" fill="#1D1C1B"/>
<path d="M84.3595 95.7157C84.707 95.4149 85.3001 95.7906 85.1743 96.232C85.1234 96.6031 84.6186 96.7737 84.3431 96.5268C84.0854 96.3368 84.0974 95.8968 84.3595 95.7157Z" fill="#1D1C1B"/>
<path d="M71.6022 96.6431C71.989 96.6431 72.3779 96.6431 72.7668 96.6431C72.7603 99.1274 72.7776 101.614 72.7581 104.098C72.7603 105.024 72.3519 106.11 71.3321 106.413C70.1806 106.689 68.975 106.513 67.8018 106.562C67.6246 107.161 67.3978 107.783 66.8922 108.21C66.2548 108.805 65.3409 108.979 64.4875 109.067C64.4853 108.721 64.4854 108.378 64.4854 108.032C65.6348 108.081 66.6545 107.251 66.6848 106.147C66.7971 103.963 66.6934 101.773 66.7388 99.5874C67.1212 99.5874 67.5058 99.5874 67.8904 99.5874C67.9055 101.544 67.8947 103.501 67.8969 105.458C68.8194 105.427 69.7593 105.55 70.6689 105.382C71.4359 105.184 71.6044 104.343 71.5979 103.693C71.6087 101.344 71.5979 98.9945 71.6022 96.6431Z" fill="#1D1C1B"/>
<path d="M74.8408 96.6431C75.1848 96.6431 75.5269 96.6452 75.8729 96.6452C75.8729 100.094 75.8768 103.545 75.871 106.996C75.5269 106.994 75.1868 106.996 74.8447 106.996C74.8331 103.545 74.8427 100.094 74.8408 96.6431Z" fill="#1D1C1B"/>
<path d="M110.992 103.473C110.992 101.196 110.985 98.9197 110.992 96.6431C111.362 96.6431 111.734 96.6431 112.108 96.6431C112.11 99.0607 112.108 101.478 112.108 103.896C112.108 104.685 111.953 105.574 111.295 106.105C110.789 106.518 110.097 106.549 109.47 106.557C105.752 106.561 102.033 106.545 98.3151 106.565C98.1437 107.182 97.9032 107.814 97.3952 108.243C96.7784 108.805 95.9233 108.973 95.1162 109.067C95.11 108.721 95.1058 108.374 95.1016 108.028C96.0675 108.073 96.9143 107.473 97.1777 106.567C96.0717 106.502 94.8235 106.753 93.8638 106.079C91.8588 104.648 91.98 101.153 94.1586 99.9334C95.5281 99.1711 97.6649 99.6084 98.1918 101.186C98.6308 102.568 98.3381 104.043 98.4239 105.466C99.3438 105.47 100.264 105.462 101.184 105.472C100.266 104.207 100.26 102.271 101.403 101.135C102.545 100.017 104.755 100.144 105.637 101.513C106.394 102.703 106.308 104.338 105.457 105.462C106.204 105.453 106.95 105.459 107.699 105.455C108.332 102.882 106.793 99.9681 104.151 99.2161C104.151 98.838 104.151 98.4619 104.155 98.0839C106.112 98.5907 107.837 100.034 108.499 101.924C108.924 103.056 108.941 104.278 108.878 105.468C109.432 105.447 110.078 105.537 110.525 105.137C110.979 104.709 110.964 104.041 110.992 103.473ZM94.5308 100.939C93.3056 101.955 93.3035 104.008 94.443 105.085C95.227 105.737 96.3352 105.374 97.2697 105.453C97.2467 104.26 97.3178 103.062 97.2363 101.871C97.0565 100.698 95.4298 100.197 94.5308 100.939ZM102.873 101.37C101.598 101.793 101.474 103.485 101.915 104.538C102.327 105.637 104.125 105.795 104.692 104.75C105.081 103.945 105.098 102.96 104.778 102.13C104.493 101.405 103.584 101.147 102.873 101.37Z" fill="#1D1C1B"/>
<path d="M114.181 96.6431C114.525 96.6431 114.87 96.6452 115.215 96.6452C115.213 100.094 115.221 103.545 115.209 106.996C114.866 106.996 114.525 106.996 114.183 106.996C114.179 103.545 114.181 100.094 114.181 96.6431Z" fill="#1D1C1B"/>
<path d="M59.5791 97.7421C59.9186 97.5435 60.3897 97.8399 60.3403 98.2371C60.3373 98.6554 59.766 98.8705 59.4789 98.5816C59.2082 98.3635 59.274 97.8881 59.5791 97.7421Z" fill="#1D1C1B"/>
<path d="M61.7025 97.7254C62.3237 97.4515 62.7348 98.4633 62.0893 98.665C61.465 98.9463 61.0661 97.9331 61.7025 97.7254Z" fill="#1D1C1B"/>
<path d="M37.1906 99.9341C37.6738 99.2086 38.5436 98.708 39.4743 98.7197C40.6088 98.706 41.7433 98.7236 42.8777 98.7178C42.8882 100.36 42.8588 102.003 42.8903 103.644C42.9051 104.451 43.3126 105.37 44.2076 105.625C44.8085 105.777 45.5249 105.797 46.0543 105.447C46.5039 105.114 46.5354 104.526 46.5627 104.033C46.5774 102.727 46.5606 101.42 46.5669 100.114C46.9451 100.116 47.3254 100.116 47.7035 100.118C47.6993 101.479 47.7077 102.84 47.7035 104.201C47.7098 104.715 47.5985 105.222 47.4388 105.713C48.0817 105.709 48.7246 105.711 49.3695 105.711C49.1847 104.702 49.2288 103.597 49.8402 102.711C50.9473 100.957 54.1092 100.916 55.271 102.637C55.9055 103.54 55.9538 104.682 55.7458 105.715C56.7059 105.709 57.6681 105.707 58.6304 105.715C57.6576 104.436 57.6177 102.566 58.5883 101.28C59.8363 99.6447 62.9351 99.7229 63.9814 101.514C65.078 103.302 64.3805 106.209 61.9918 106.671C59.7543 106.876 57.4896 106.704 55.2416 106.767C54.0714 108.447 51.044 108.458 49.8738 106.775C48.0124 106.722 46.1468 106.82 44.2874 106.724C43.0479 106.677 42.0752 105.748 41.7495 104.678C40.8315 105.979 38.5268 106.149 37.4826 104.897C36.2977 103.523 36.2494 101.432 37.1906 99.9341ZM38.5205 99.9771C37.5414 100.943 37.4658 102.484 37.9784 103.671C38.2999 104.453 39.1801 105.106 40.1171 104.882C40.9701 104.758 41.4554 103.976 41.5941 103.245C41.8336 102.011 41.6823 100.748 41.7243 99.5C40.6655 99.5958 39.3692 99.1949 38.5205 99.9771ZM60.3531 101.16C59.6535 101.452 59.3026 102.165 59.206 102.836C59.0779 103.675 59.1535 104.62 59.7543 105.296C60.5716 106.204 62.4225 106.055 62.9267 104.921C63.3364 103.99 63.3721 102.879 62.9498 101.946C62.538 101.035 61.2628 100.755 60.3531 101.16ZM51.981 102.404C51.2373 102.615 50.7835 103.305 50.6721 103.992C50.5356 104.782 50.5545 105.662 51.0335 106.354C51.5797 107.142 52.8403 107.289 53.6617 106.804C54.2247 106.454 54.4411 105.801 54.5105 105.204C54.5945 104.399 54.5588 103.493 53.9768 102.84C53.5062 102.3 52.6575 102.212 51.981 102.404Z" fill="#1D1C1B"/>
<path d="M79.1814 100.938C79.481 99.8368 80.4393 98.8159 81.6951 98.7376C82.9233 98.6893 84.1557 98.7335 85.386 98.7195C85.3945 100.397 85.3711 102.077 85.3945 103.755C85.4094 104.597 85.8195 105.562 86.7459 105.821C87.581 106.052 88.892 105.974 89.1024 104.983C89.3616 103.384 89.164 101.752 89.2299 100.138C89.6038 100.134 89.9799 100.132 90.356 100.128C90.3582 101.657 90.3879 103.187 90.3433 104.716C90.3093 105.568 89.9119 106.543 88.9813 106.832C88.0973 107.067 87.1411 107.029 86.2508 106.852C85.2309 106.617 84.5509 105.755 84.2428 104.851C83.3631 106.099 81.2383 106.348 80.1163 105.263C78.9583 104.143 78.7628 102.397 79.1814 100.938ZM80.2353 101.336C79.9612 102.495 80.1418 103.894 81.1256 104.72C81.9905 105.45 83.5076 105.052 83.8773 104.021C84.4489 102.586 84.1344 101.018 84.2131 99.5233C83.4417 99.5394 82.6662 99.4771 81.897 99.5575C80.9875 99.7022 80.4244 100.542 80.2353 101.336Z" fill="#1D1C1B"/>
<path d="M44.1075 108.172C44.7046 107.857 45.9198 108.113 45.8478 108.55C45.9108 108.933 44.9236 109.207 44.2966 108.992C43.6935 108.842 43.6034 108.388 44.1075 108.172Z" fill="#1D1C1B"/>
<path d="M46.254 108.142C46.8868 107.868 47.9816 108.145 47.9186 108.563C47.9456 108.967 46.8808 109.22 46.266 108.964C45.7171 108.779 45.7111 108.331 46.254 108.142Z" fill="#1D1C1B"/>
<path d="M87.4289 108.166C87.7331 107.858 88.3371 108.121 88.2949 108.555C88.3235 108.938 87.828 109.206 87.5147 108.991C87.2165 108.834 87.1743 108.382 87.4289 108.166Z" fill="#1D1C1B"/>
<path d="M89.7628 108.141C90.4641 107.83 91.6596 108.242 91.3548 108.689C91.1861 109.125 89.8575 109.211 89.4846 108.807C89.1798 108.591 89.3662 108.288 89.7628 108.141Z" fill="#1D1C1B"/>
<path d="M36.5342 118.386C36.927 118.386 37.3217 118.386 37.7144 118.384C37.7164 121.283 37.7086 124.184 37.7164 127.084C37.697 128.066 38.3703 128.919 39.1927 129.26C40.2858 129.722 41.5977 129.657 42.6115 128.99C43.2307 128.595 43.666 127.857 43.6428 127.068C43.6544 124.173 43.6428 121.279 43.6467 118.384C44.0356 118.386 44.4245 118.386 44.8153 118.386C44.8134 121.281 44.8153 124.175 44.8153 127.07C44.8598 128.691 43.6873 130.102 42.2961 130.547C40.6283 131.107 38.6025 130.785 37.3623 129.383C36.8147 128.773 36.5342 127.924 36.5381 127.08C36.5303 124.184 36.538 121.285 36.5342 118.386Z" fill="#1D1C1B"/>
<path d="M52.0778 118.384C52.4132 118.386 52.7487 118.388 53.0863 118.391C54.8119 122.53 56.5396 126.67 58.274 130.806C57.8026 130.806 57.3312 130.806 56.8619 130.806C56.3292 129.549 55.7788 128.296 55.246 127.038C53.4766 127.028 51.705 127.03 49.9356 127.036C49.3853 128.291 48.8284 129.542 48.3087 130.808C47.8329 130.806 47.3593 130.806 46.8857 130.806C48.6223 126.668 50.35 122.526 52.0778 118.384ZM52.6127 120.128C51.8695 122.041 51.1656 123.966 50.4399 125.885C51.8651 125.888 53.2903 125.888 54.7154 125.885C54.0204 123.966 53.299 122.054 52.6127 120.128Z" fill="#1D1C1B"/>
<path d="M59.3107 118.384C61.7125 118.386 64.1164 118.389 66.5203 118.384C66.5203 118.809 66.5203 119.233 66.5224 119.66C64.5406 119.658 62.5589 119.66 60.5771 119.66C60.5771 121.09 60.5771 122.52 60.5771 123.95C62.5173 123.952 64.4574 123.95 66.3976 123.952C66.3976 124.376 66.3955 124.801 66.3976 125.225C64.4574 125.221 62.5173 125.225 60.5792 125.223C60.575 126.664 60.5771 128.106 60.5792 129.547C62.5692 129.545 64.5614 129.547 66.5536 129.547C66.5536 129.965 66.5536 130.385 66.5556 130.808C64.1393 130.808 61.725 130.808 59.3086 130.808C59.3107 126.666 59.3086 122.526 59.3107 118.384Z" fill="#1D1C1B"/>
<path d="M73.8047 118.384C75.3832 118.399 76.9639 118.37 78.5445 118.397C79.7961 118.439 81.004 119.178 81.5746 120.317C82.6533 122.294 82.0078 125.256 79.8378 126.16C78.3154 126.721 76.6557 126.36 75.0729 126.461C75.0688 127.909 75.0709 129.358 75.0709 130.808C74.6481 130.806 74.2254 130.806 73.8047 130.808C73.8047 126.666 73.8047 122.526 73.8047 118.384ZM75.0688 119.671C75.0729 121.522 75.0709 123.37 75.0709 125.218C76.1642 125.212 77.2596 125.235 78.3529 125.212C79.2442 125.189 80.1272 124.676 80.5375 123.862C81.2934 122.4 80.677 120.184 78.9839 119.762C77.6907 119.564 76.3724 119.72 75.0688 119.671Z" fill="#1D1C1B"/>
<path d="M83.1221 130.808C84.6957 126.665 86.2712 122.527 87.8428 118.384C88.144 118.384 88.4491 118.384 88.7543 118.384C90.3298 122.525 91.9034 126.665 93.475 130.806C93.0482 130.806 92.6214 130.806 92.1966 130.808C91.706 129.55 91.2114 128.295 90.7247 127.038C89.1133 127.03 87.5038 127.03 85.8923 127.036C85.3937 128.291 84.8851 129.542 84.4124 130.808C83.9817 130.808 83.5509 130.806 83.1221 130.808ZM86.351 125.885C87.6474 125.887 88.9437 125.889 90.2401 125.883C89.5979 123.965 88.9736 122.042 88.3115 120.131C87.6653 122.052 87.0072 123.967 86.351 125.885Z" fill="#1D1C1B"/>
<path d="M95.6537 119.602C97.3711 118.131 100.216 117.967 102.1 119.251C102.773 119.709 103.192 120.414 103.416 121.158C102.979 121.174 102.545 121.191 102.111 121.201C101.194 119.31 98.2616 119.141 96.678 120.356C95.6164 121.121 95.68 122.955 96.9675 123.48C98.7441 124.189 100.876 123.794 102.534 124.854C104.159 125.784 104.206 128.134 102.931 129.353C101.014 131.219 97.3996 131.334 95.4585 129.442C94.9343 128.946 94.647 128.287 94.5088 127.609C94.9518 127.596 95.3971 127.586 95.8423 127.576C96.5639 129.865 100.1 130.15 101.791 128.669C102.725 127.931 102.775 126.264 101.604 125.716C99.832 124.927 97.6738 125.423 95.9783 124.404C94.2434 123.412 94.2017 120.837 95.6537 119.602Z" fill="#1D1C1B"/>
<path d="M106.984 119.657C108.63 118.175 111.385 117.976 113.293 119.12C114.068 119.575 114.561 120.342 114.807 121.157C114.373 121.175 113.941 121.192 113.511 121.208C112.567 119.295 109.582 119.13 108.004 120.406C106.98 121.206 107.109 123.032 108.415 123.512C110.205 124.178 112.339 123.81 113.984 124.9C115.478 125.809 115.579 127.968 114.471 129.193C113.094 130.727 110.659 131.147 108.684 130.543C107.287 130.129 106.107 129.013 105.898 127.617C106.335 127.6 106.774 127.573 107.215 127.602C108.039 129.976 111.843 130.202 113.427 128.417C114.145 127.611 114.022 126.144 112.929 125.687C111.19 124.962 109.121 125.398 107.452 124.457C105.666 123.524 105.554 120.925 106.984 119.657Z" fill="#1D1C1B"/>
<path d="M69.1716 23.4648C75.8614 22.5257 82.8078 23.6201 88.8912 26.5617C89.8785 27.0778 91.0097 27.462 91.7444 28.3391C92.3002 29.0493 91.9115 30.0505 91.3479 30.6326C90.6054 31.2885 89.6453 30.7568 88.8951 30.4153C83.9662 27.8773 78.4464 26.29 72.8683 26.5229C68.3825 26.6975 63.9784 28.0248 60.0485 30.1708C59.4187 30.4929 58.7851 30.8616 58.0777 30.9819C56.5733 30.8888 55.8775 28.603 57.2847 27.8462C60.8687 25.5643 64.9696 24.0974 69.1716 23.4648Z" fill="#1D1C1B"/>
<path d="M72.1619 31.0093C72.8655 30.6988 73.674 30.858 74.4242 30.8192C80.6048 30.8657 86.8398 32.7052 91.7998 36.4463C94.3731 38.3712 96.6355 40.7152 98.5091 43.323C99.2515 44.2777 98.5674 45.8572 97.3701 45.9775C96.274 46.1987 95.6792 45.1276 95.1039 44.4135C89.9923 37.7852 81.6038 33.7957 73.2114 34.2537C71.3612 34.6223 70.4749 31.7894 72.1619 31.0093Z" fill="#1D1C1B"/>
<path d="M65.6424 31.9296C66.9446 31.2078 68.5267 32.5932 68.0291 33.9787C67.6482 35.2011 66.1749 35.1856 65.1798 35.597C59.8233 37.2735 55.5086 41.259 52.4183 45.8306C51.8857 46.5835 51.3299 47.5071 50.3231 47.6468C49.0403 47.5886 47.9869 46.0634 48.7915 44.9186C51.0422 41.9071 53.4367 38.9112 56.5192 36.6991C59.3141 34.6966 62.3616 32.993 65.6424 31.9296Z" fill="#1D1C1B"/>
<path d="M52.0183 32.1888C53.0718 31.3039 54.8482 32.2703 54.7005 33.6285C54.7627 34.8161 53.3205 35.7552 52.2749 35.1343C51.1593 34.622 51.0193 32.8951 52.0183 32.1888Z" fill="#1D1C1B"/>
<path d="M71.1123 38.1966C77.2501 37.2109 83.765 38.8253 88.6823 42.644C93.5879 46.3695 96.7326 52.3033 96.9619 58.4659C97.0552 61.5861 96.9075 64.9042 95.3176 67.6789C94.0621 69.9453 91.3372 71.191 88.795 70.8806C87.2868 70.6322 86.9602 68.3581 88.313 67.6751C89.3431 67.2909 90.5481 67.5431 91.5121 66.9338C93.273 65.9442 93.8638 63.7981 94.0077 61.9198C94.3031 57.2086 93.102 52.2916 90.1516 48.5467C87.7299 45.4343 84.1926 43.2843 80.3948 42.2986C75.0772 40.9015 69.126 41.2508 64.3292 44.0954C58.9222 47.2078 55.4276 53.0717 54.6696 59.1955C54.1293 62.9715 54.6696 66.8096 55.6842 70.4576C55.9485 71.226 55.9368 72.2001 55.2099 72.7162C54.312 73.4924 52.7727 72.9413 52.5628 71.7809C50.7358 65.4203 50.4831 58.3922 53.0137 52.1791C55.9563 44.7008 63.2836 39.485 71.1123 38.1966Z" fill="#1D1C1B"/>
<path d="M75.3184 45.8067C76.2357 45.1081 77.7012 45.7407 77.8878 46.8584C78.2648 48.1313 76.8266 49.4507 75.5982 48.857C74.3621 48.3797 74.2066 46.5014 75.3184 45.8067Z" fill="#1D1C1B"/>
<path d="M81.5495 48.0975C82.1404 47.6745 82.9839 47.7172 83.5398 48.1829C87.1237 50.9305 89.4366 55.176 90.0858 59.6157C90.2024 60.6402 90.3579 61.7268 90.0002 62.7203C89.2889 64.0242 86.9333 63.5663 86.9838 61.9791C86.6573 57.7917 84.6709 53.7751 81.5146 50.9964C80.5311 50.325 80.5389 48.7339 81.5495 48.0975Z" fill="#1D1C1B"/>
<path d="M99.8275 48.5386C100.865 47.7974 102.432 48.6861 102.397 49.9396C102.552 51.2707 100.846 52.2758 99.777 51.4454C98.7702 50.805 98.8052 49.1402 99.8275 48.5386Z" fill="#1D1C1B"/>
<path d="M46.133 50.3981C46.9182 49.9285 48.0105 50.3243 48.3953 51.1315C48.8384 51.8883 48.3681 52.7071 48.1737 53.4561C47.4896 55.4586 47.2447 57.5698 47.0815 59.6693C47.0076 60.6589 45.8492 61.3729 44.9241 61.0043C44.205 60.7675 43.7074 60.0147 43.789 59.2579C43.8823 56.7936 44.3488 54.3448 45.0912 51.9931C45.2972 51.3916 45.5072 50.693 46.133 50.3981Z" fill="#1D1C1B"/>
<path d="M71.477 53.294C72.406 53.0534 73.4206 52.7041 74.3691 53.0068C75.5896 53.4608 75.7568 55.3159 74.6645 56.0028C73.7082 56.4491 72.5732 56.3404 71.6442 56.8759C69.7667 57.8112 68.7249 59.9301 68.721 61.9753C68.7754 66.9311 70.4741 71.9994 74.0075 75.5697C76.3398 77.9447 79.2435 79.7881 82.4349 80.7777C83.3562 81.0144 84.2541 81.8721 83.9004 82.9005C83.7643 83.8901 82.6837 84.3441 81.7935 84.0764C77.16 83.1993 73.2418 80.1024 70.3964 76.4623C67.0068 72.0498 64.8183 66.4343 65.4364 60.8111C65.759 57.4154 68.1962 54.3069 71.477 53.294Z" fill="#1D1C1B"/>
<path d="M102.544 53.9717C103.663 53.4556 105.016 54.5228 104.849 55.7181C104.837 56.9172 103.356 57.7438 102.334 57.0919C101.125 56.4476 101.25 54.4335 102.544 53.9717Z" fill="#1D1C1B"/>
<path d="M78.8158 55.4627C79.9315 54.7602 81.1131 55.7537 81.4941 56.7976C82.0422 57.9308 82.4464 59.1378 82.6408 60.3835C82.7496 62.0173 80.3785 62.8711 79.4611 61.4895C78.9091 60.2826 78.6448 58.9592 78.1356 57.7329C77.7391 56.9374 78.019 55.8857 78.8158 55.4627Z" fill="#1D1C1B"/>
<path d="M73.3772 60.5467C74.2751 59.9529 75.7289 60.4225 75.76 61.5945C75.9816 63.8725 76.2925 66.201 77.4392 68.2268C79.4372 72.0765 83.6859 74.6068 88.0279 74.5214C88.9608 74.5913 90.1464 74.1877 90.8422 75.0298C91.709 75.9301 91.2114 77.6416 89.9637 77.8744C84.1135 78.8019 77.9951 75.6818 74.9476 70.6755C73.4705 68.2966 72.6464 65.5141 72.5958 62.716C72.592 61.9515 72.6619 61.0046 73.3772 60.5467Z" fill="#1D1C1B"/>
<path d="M82.6482 65.1337C83.9348 64.5399 85.3886 66.0806 84.8328 67.3496C84.5334 68.4401 83.0447 68.8942 82.1856 68.1568C81.1516 67.3846 81.4082 65.5295 82.6482 65.1337Z" fill="#1D1C1B"/>
<path d="M94.7768 72.2119C95.9429 71.331 97.7077 72.6194 97.3423 73.9854C97.1946 75.1613 95.6747 75.8443 94.7223 75.1031C93.7428 74.4589 93.7661 72.8134 94.7768 72.2119Z" fill="#1D1C1B"/>
<path d="M55.4961 76.0619C56.5496 75.3595 58.0811 76.2482 58.0461 77.4939C58.1705 78.794 56.5651 79.7952 55.4728 79.0307C54.4039 78.4059 54.435 76.675 55.4961 76.0619Z" fill="#1D1C1B"/>
<path d="M69.152 46.2889C69.8439 46.0561 70.738 45.8349 71.321 46.417C72.3123 47.1932 72.0013 49.0094 70.7535 49.3276C67.0218 50.4918 63.8499 53.3403 62.4233 56.9883C61.3077 59.6738 61.3582 62.6659 61.6964 65.5066C62.0813 68.8441 63.2474 72.0457 64.8683 74.9757C65.6652 76.1128 64.4796 77.8203 63.1424 77.5021C61.8053 77.2072 61.5293 75.6316 60.954 74.5954C58.8277 69.2593 57.2029 63.2829 58.75 57.5743C60.0755 52.4089 64.0365 47.9499 69.152 46.2889Z" fill="#1EAB75"/>
<path d="M66.0199 79.5396C66.7662 78.9148 67.8585 79.2097 68.426 79.9238C69.6699 81.1578 70.9838 82.3182 72.4142 83.3311C73.7281 84.1693 72.8185 86.4668 71.2792 86.1912C69.1374 85.3957 67.2715 83.9054 65.8333 82.1513C65.1569 81.4217 65.1919 80.1372 66.0199 79.5396Z" fill="#E82026"/>
</svg>
